<svg xmlns="http://www.w3.org/2000/svg" xmlns:xlink="http://www.w3.org/1999/xlink" width="1166pt" height="1020pt" viewBox="0.00 0.00 1166.00 1020.00">
<g id="graph0" class="graph" transform="scale(1 1) rotate(0) translate(4 1016.4)">
<title>DersKayitSistemi</title>
<polygon fill="white" stroke="none" points="-4,4 -4,-1016.4 1162,-1016.4 1162,4 -4,4"/>
<!-- Start -->
<g id="node1" class="node">
<title>Start</title>
<ellipse fill="none" stroke="black" cx="600" cy="-994.4" rx="41.1" ry="18"/>
<text xml:space="preserve" text-anchor="middle" x="600" y="-990.2" font-family="Arial" font-size="14.00">BAŞLA</text>
</g>
<!-- Login -->
<g id="node2" class="node">
<title>Login</title>
<path fill="none" stroke="black" d="M799.32,-939.4C799.32,-939.4 487.16,-939.4 487.16,-939.4 481.16,-939.4 469.62,-937.09 464.08,-934.79 464.08,-934.79 399.76,-908.01 399.76,-908.01 394.22,-905.71 394.68,-903.4 400.68,-903.4 400.68,-903.4 712.84,-903.4 712.84,-903.4 718.84,-903.4 730.38,-905.71 735.92,-908.01 735.92,-908.01 800.24,-934.79 800.24,-934.79 805.78,-937.09 805.32,-939.4 799.32,-939.4"/>
<text xml:space="preserve" text-anchor="middle" x="600" y="-917.2" font-family="Arial" font-size="14.00">Giriş Yap (kullanıcı adı, şifre)</text>
</g>
<!-- Start&#45;&gt;Login -->
<g id="edge1" class="edge">
<title>Start-&gt;Login</title>
<path fill="none" stroke="black" d="M600,-976.21C600,-968.63 600,-959.5 600,-950.94"/>
<polygon fill="black" stroke="black" points="603.5,-950.94 600,-940.94 596.5,-950.94 603.5,-950.94"/>
</g>
<!-- Auth -->
<g id="node3" class="node">
<title>Auth</title>
<path fill="none" stroke="black" d="M588.05,-865.26C588.05,-865.26 422.53,-849.54 422.53,-849.54 416.55,-848.97 416.55,-847.83 422.53,-847.26 422.53,-847.26 588.05,-831.54 588.05,-831.54 594.03,-830.97 605.97,-830.97 611.95,-831.54 611.95,-831.54 777.47,-847.26 777.47,-847.26 783.45,-847.83 783.45,-848.97 777.47,-849.54 777.47,-849.54 611.95,-865.26 611.95,-865.26 605.97,-865.83 594.03,-865.83 588.05,-865.26"/>
<text xml:space="preserve" text-anchor="middle" x="600" y="-844.2" font-family="Arial" font-size="14.00">Kimlik doğrulama doğru mu?</text>
</g>
<!-- Login&#45;&gt;Auth -->
<g id="edge2" class="edge">
<title>Login-&gt;Auth</title>
<path fill="none" stroke="black" d="M600,-903.21C600,-895.63 600,-886.5 600,-877.94"/>
<polygon fill="black" stroke="black" points="603.5,-877.94 600,-867.94 596.5,-877.94 603.5,-877.94"/>
</g>
<!-- Fail -->
<g id="node4" class="node">
<title>Fail</title>
<ellipse fill="none" stroke="black" cx="571" cy="-759.6" rx="98.5" ry="18"/>
<text xml:space="preserve" text-anchor="middle" x="571" y="-755.4" font-family="Arial" font-size="14.00">Hatalı giriş - BİTİR</text>
</g>
<!-- Auth&#45;&gt;Fail -->
<g id="edge4" class="edge">
<title>Auth-&gt;Fail</title>
<path fill="none" stroke="black" d="M594.41,-830.66C590.45,-818.81 585.04,-802.62 580.42,-788.79"/>
<polygon fill="black" stroke="black" points="583.74,-787.69 577.25,-779.31 577.1,-789.91 583.74,-787.69"/>
<text xml:space="preserve" text-anchor="middle" x="605.59" y="-799.8" font-family="Times,serif" font-size="14.00">Hayır</text>
</g>
<!-- DersList -->
<g id="node5" class="node">
<title>DersList</title>
<path fill="none" stroke="black" d="M802.24,-777.6C802.24,-777.6 699.76,-777.6 699.76,-777.6 693.76,-777.6 687.76,-771.6 687.76,-765.6 687.76,-765.6 687.76,-753.6 687.76,-753.6 687.76,-747.6 693.76,-741.6 699.76,-741.6 699.76,-741.6 802.24,-741.6 802.24,-741.6 808.24,-741.6 814.24,-747.6 814.24,-753.6 814.24,-753.6 814.24,-765.6 814.24,-765.6 814.24,-771.6 808.24,-777.6 802.24,-777.6"/>
<text xml:space="preserve" text-anchor="middle" x="751" y="-755.4" font-family="Arial" font-size="14.00">Ders listesini getir</text>
</g>
<!-- Auth&#45;&gt;DersList -->
<g id="edge3" class="edge">
<title>Auth-&gt;DersList</title>
<path fill="none" stroke="black" d="M625.96,-832.48C649.29,-819.07 683.91,-799.16 710.82,-783.7"/>
<polygon fill="black" stroke="black" points="712.47,-786.78 719.4,-778.77 708.98,-780.72 712.47,-786.78"/>
<text xml:space="preserve" text-anchor="middle" x="701.85" y="-799.8" font-family="Times,serif" font-size="14.00">Evet</text>
</g>
<!-- ShowList -->
<g id="node6" class="node">
<title>ShowList</title>
<path fill="none" stroke="black" d="M802.24,-704.6C802.24,-704.6 699.76,-704.6 699.76,-704.6 693.76,-704.6 687.76,-698.6 687.76,-692.6 687.76,-692.6 687.76,-680.6 687.76,-680.6 687.76,-674.6 693.76,-668.6 699.76,-668.6 699.76,-668.6 802.24,-668.6 802.24,-668.6 808.24,-668.6 814.24,-674.6 814.24,-680.6 814.24,-680.6 814.24,-692.6 814.24,-692.6 814.24,-698.6 808.24,-704.6 802.24,-704.6"/>
<text xml:space="preserve" text-anchor="middle" x="751" y="-682.4" font-family="Arial" font-size="14.00">Dersleri görüntüle</text>
</g>
<!-- DersList&#45;&gt;ShowList -->
<g id="edge5" class="edge">
<title>DersList-&gt;ShowList</title>
<path fill="none" stroke="black" d="M751,-741.41C751,-733.83 751,-724.7 751,-716.14"/>
<polygon fill="black" stroke="black" points="754.5,-716.14 751,-706.14 747.5,-716.14 754.5,-716.14"/>
</g>
<!-- SelectLoop -->
<g id="node7" class="node">
<title>SelectLoop</title>
<path fill="none" stroke="black" d="M812.74,-631.6C812.74,-631.6 689.26,-631.6 689.26,-631.6 683.26,-631.6 677.26,-625.6 677.26,-619.6 677.26,-619.6 677.26,-607.6 677.26,-607.6 677.26,-601.6 683.26,-595.6 689.26,-595.6 689.26,-595.6 812.74,-595.6 812.74,-595.6 818.74,-595.6 824.74,-601.6 824.74,-607.6 824.74,-607.6 824.74,-619.6 824.74,-619.6 824.74,-625.6 818.74,-631.6 812.74,-631.6"/>
<text xml:space="preserve" text-anchor="middle" x="751" y="-609.4" font-family="Arial" font-size="14.00">Ders seçimi döngüsü</text>
</g>
<!-- ShowList&#45;&gt;SelectLoop -->
<g id="edge6" class="edge">
<title>ShowList-&gt;SelectLoop</title>
<path fill="none" stroke="black" d="M751,-668.41C751,-660.83 751,-651.7 751,-643.14"/>
<polygon fill="black" stroke="black" points="754.5,-643.14 751,-633.14 747.5,-643.14 754.5,-643.14"/>
</g>
<!-- DersGir -->
<g id="node8" class="node">
<title>DersGir</title>
<path fill="none" stroke="black" d="M839.38,-558.6C839.38,-558.6 703.7,-558.6 703.7,-558.6 697.7,-558.6 687.18,-554.65 682.67,-550.69 682.67,-550.69 659.64,-530.51 659.64,-530.51 655.13,-526.55 656.62,-522.6 662.62,-522.6 662.62,-522.6 798.3,-522.6 798.3,-522.6 804.3,-522.6 814.82,-526.55 819.33,-530.51 819.33,-530.51 842.36,-550.69 842.36,-550.69 846.87,-554.65 845.38,-558.6 839.38,-558.6"/>
<text xml:space="preserve" text-anchor="middle" x="751" y="-536.4" font-family="Arial" font-size="14.00">Ders kodu gir</text>
</g>
<!-- SelectLoop&#45;&gt;DersGir -->
<g id="edge7" class="edge">
<title>SelectLoop-&gt;DersGir</title>
<path fill="none" stroke="black" d="M751,-595.41C751,-587.83 751,-578.7 751,-570.14"/>
<polygon fill="black" stroke="black" points="754.5,-570.14 751,-560.14 747.5,-570.14 754.5,-570.14"/>
</g>
<!-- EndSelect -->
<g id="node9" class="node">
<title>EndSelect</title>
<path fill="none" stroke="black" d="M628.13,-483.81C628.13,-483.81 532.3,-469.39 532.3,-469.39 526.36,-468.49 526.36,-466.71 532.3,-465.81 532.3,-465.81 628.13,-451.39 628.13,-451.39 634.07,-450.49 645.93,-450.49 651.87,-451.39 651.87,-451.39 747.7,-465.81 747.7,-465.81 753.64,-466.71 753.64,-468.49 747.7,-469.39 747.7,-469.39 651.87,-483.81 651.87,-483.81 645.93,-484.71 634.07,-484.71 628.13,-483.81"/>
<text xml:space="preserve" text-anchor="middle" x="640" y="-463.4" font-family="Arial" font-size="14.00">BİTİR girildi mi?</text>
</g>
<!-- DersGir&#45;&gt;EndSelect -->
<g id="edge8" class="edge">
<title>DersGir-&gt;EndSelect</title>
<path fill="none" stroke="black" d="M723.85,-522.23C707.97,-512.07 687.85,-499.21 671.3,-488.62"/>
<polygon fill="black" stroke="black" points="673.62,-485.95 663.31,-483.51 669.85,-491.85 673.62,-485.95"/>
</g>
<!-- ExitSelect -->
<g id="node10" class="node">
<title>ExitSelect</title>
<ellipse fill="none" stroke="black" cx="666" cy="-378.8" rx="94.22" ry="18"/>
<text xml:space="preserve" text-anchor="middle" x="666" y="-374.6" font-family="Arial" font-size="14.00">Seçim tamamlandı</text>
</g>
<!-- EndSelect&#45;&gt;ExitSelect -->
<g id="edge9" class="edge">
<title>EndSelect-&gt;ExitSelect</title>
<path fill="none" stroke="black" d="M645.01,-449.86C648.56,-438.01 653.41,-421.82 657.55,-407.99"/>
<polygon fill="black" stroke="black" points="660.87,-409.11 660.39,-398.53 654.17,-407.1 660.87,-409.11"/>
<text xml:space="preserve" text-anchor="middle" x="668.16" y="-419" font-family="Times,serif" font-size="14.00">Evet</text>
</g>
<!-- Kontenjan -->
<g id="node11" class="node">
<title>Kontenjan</title>
<path fill="none" stroke="black" d="M393.09,-395.36C393.09,-395.36 268.43,-380.24 268.43,-380.24 262.47,-379.52 262.47,-378.08 268.43,-377.36 268.43,-377.36 393.09,-362.24 393.09,-362.24 399.04,-361.52 410.96,-361.52 416.91,-362.24 416.91,-362.24 541.57,-377.36 541.57,-377.36 547.53,-378.08 547.53,-379.52 541.57,-380.24 541.57,-380.24 416.91,-395.36 416.91,-395.36 410.96,-396.08 399.04,-396.08 393.09,-395.36"/>
<text xml:space="preserve" text-anchor="middle" x="405" y="-374.6" font-family="Arial" font-size="14.00">Kontenjan uygun mu?</text>
</g>
<!-- EndSelect&#45;&gt;Kontenjan -->
<g id="edge10" class="edge">
<title>EndSelect-&gt;Kontenjan</title>
<path fill="none" stroke="black" d="M606.33,-454.16C565.65,-439.14 496.98,-413.78 451.33,-396.91"/>
<polygon fill="black" stroke="black" points="452.54,-393.63 441.95,-393.45 450.12,-400.2 452.54,-393.63"/>
<text xml:space="preserve" text-anchor="middle" x="561.04" y="-419" font-family="Times,serif" font-size="14.00">Hayır</text>
</g>
<!-- Danisman -->
<g id="node20" class="node">
<title>Danisman</title>
<path fill="none" stroke="black" d="M878.13,-306.27C878.13,-306.27 778.47,-291.73 778.47,-291.73 772.53,-290.87 772.53,-289.13 778.47,-288.27 778.47,-288.27 878.13,-273.73 878.13,-273.73 884.06,-272.87 895.94,-272.87 901.87,-273.73 901.87,-273.73 1001.53,-288.27 1001.53,-288.27 1007.47,-289.13 1007.47,-290.87 1001.53,-291.73 1001.53,-291.73 901.87,-306.27 901.87,-306.27 895.94,-307.13 884.06,-307.13 878.13,-306.27"/>
<text xml:space="preserve" text-anchor="middle" x="890" y="-285.8" font-family="Arial" font-size="14.00">Danışman onayı</text>
</g>
<!-- ExitSelect&#45;&gt;Danisman -->
<g id="edge24" class="edge">
<title>ExitSelect-&gt;Danisman</title>
<path fill="none" stroke="black" d="M706.31,-362.18C745.88,-346.85 806.06,-323.53 846.65,-307.8"/>
<polygon fill="black" stroke="black" points="847.82,-311.1 855.88,-304.22 845.29,-304.57 847.82,-311.1"/>
</g>
<!-- Onkosul -->
<g id="node12" class="node">
<title>Onkosul</title>
<path fill="none" stroke="black" d="M356.09,-306.5C356.09,-306.5 236.79,-291.5 236.79,-291.5 230.84,-290.75 230.84,-289.25 236.79,-288.5 236.79,-288.5 356.09,-273.5 356.09,-273.5 362.05,-272.75 373.95,-272.75 379.91,-273.5 379.91,-273.5 499.21,-288.5 499.21,-288.5 505.16,-289.25 505.16,-290.75 499.21,-291.5 499.21,-291.5 379.91,-306.5 379.91,-306.5 373.95,-307.25 362.05,-307.25 356.09,-306.5"/>
<text xml:space="preserve" text-anchor="middle" x="368" y="-285.8" font-family="Arial" font-size="14.00">Ön koşul tamam mı?</text>
</g>
<!-- Kontenjan&#45;&gt;Onkosul -->
<g id="edge11" class="edge">
<title>Kontenjan-&gt;Onkosul</title>
<path fill="none" stroke="black" d="M398.04,-361.47C392.8,-349.19 385.51,-332.08 379.42,-317.79"/>
<polygon fill="black" stroke="black" points="382.79,-316.77 375.65,-308.94 376.35,-319.51 382.79,-316.77"/>
<text xml:space="preserve" text-anchor="middle" x="402.64" y="-330.2" font-family="Times,serif" font-size="14.00">Evet</text>
</g>
<!-- KontenjanFull -->
<g id="node16" class="node">
<title>KontenjanFull</title>
<path fill="none" stroke="black" d="M736.56,-308C736.56,-308 541.44,-308 541.44,-308 535.44,-308 529.44,-302 529.44,-296 529.44,-296 529.44,-284 529.44,-284 529.44,-278 535.44,-272 541.44,-272 541.44,-272 736.56,-272 736.56,-272 742.56,-272 748.56,-278 748.56,-284 748.56,-284 748.56,-296 748.56,-296 748.56,-302 742.56,-308 736.56,-308"/>
<text xml:space="preserve" text-anchor="middle" x="639" y="-285.8" font-family="Arial" font-size="14.00">Kontenjan dolu - Ders eklenmedi</text>
</g>
<!-- Kontenjan&#45;&gt;KontenjanFull -->
<g id="edge12" class="edge">
<title>Kontenjan-&gt;KontenjanFull</title>
<path fill="none" stroke="black" d="M440.54,-364.62C477.98,-350.73 537.52,-328.64 581.63,-312.28"/>
<polygon fill="black" stroke="black" points="582.62,-315.64 590.78,-308.89 580.19,-309.08 582.62,-315.64"/>
<text xml:space="preserve" text-anchor="middle" x="560.45" y="-330.2" font-family="Times,serif" font-size="14.00">Hayır</text>
</g>
<!-- Zaman -->
<g id="node13" class="node">
<title>Zaman</title>
<path fill="none" stroke="black" d="M434.06,-218.04C434.06,-218.04 272.34,-202.36 272.34,-202.36 266.37,-201.78 266.37,-200.62 272.34,-200.04 272.34,-200.04 434.06,-184.36 434.06,-184.36 440.03,-183.78 451.97,-183.78 457.94,-184.36 457.94,-184.36 619.66,-200.04 619.66,-200.04 625.63,-200.62 625.63,-201.78 619.66,-202.36 619.66,-202.36 457.94,-218.04 457.94,-218.04 451.97,-218.62 440.03,-218.62 434.06,-218.04"/>
<text xml:space="preserve" text-anchor="middle" x="446" y="-197" font-family="Arial" font-size="14.00">Zaman çakışması var mı?</text>
</g>
<!-- Onkosul&#45;&gt;Zaman -->
<g id="edge13" class="edge">
<title>Onkosul-&gt;Zaman</title>
<path fill="none" stroke="black" d="M381.94,-273.48C393.67,-260.44 410.62,-241.57 424.15,-226.52"/>
<polygon fill="black" stroke="black" points="426.56,-229.07 430.64,-219.3 421.35,-224.4 426.56,-229.07"/>
<text xml:space="preserve" text-anchor="middle" x="426.81" y="-241.4" font-family="Times,serif" font-size="14.00">Evet</text>
</g>
<!-- OnkosulFail -->
<g id="node17" class="node">
<title>OnkosulFail</title>
<path fill="none" stroke="black" d="M230.2,-219.2C230.2,-219.2 39.8,-219.2 39.8,-219.2 33.8,-219.2 27.8,-213.2 27.8,-207.2 27.8,-207.2 27.8,-195.2 27.8,-195.2 27.8,-189.2 33.8,-183.2 39.8,-183.2 39.8,-183.2 230.2,-183.2 230.2,-183.2 236.2,-183.2 242.2,-189.2 242.2,-195.2 242.2,-195.2 242.2,-207.2 242.2,-207.2 242.2,-213.2 236.2,-219.2 230.2,-219.2"/>
<text xml:space="preserve" text-anchor="middle" x="135" y="-197" font-family="Arial" font-size="14.00">Ön koşul eksik - Ders eklenmedi</text>
</g>
<!-- Onkosul&#45;&gt;OnkosulFail -->
<g id="edge14" class="edge">
<title>Onkosul-&gt;OnkosulFail</title>
<path fill="none" stroke="black" d="M333.12,-276.01C295.94,-262.16 236.48,-240 192.38,-223.58"/>
<polygon fill="black" stroke="black" points="193.82,-220.38 183.23,-220.17 191.38,-226.94 193.82,-220.38"/>
<text xml:space="preserve" text-anchor="middle" x="289.86" y="-241.4" font-family="Times,serif" font-size="14.00">Hayır</text>
</g>
<!-- Kredi -->
<g id="node14" class="node">
<title>Kredi</title>
<path fill="none" stroke="black" d="M434.08,-129C434.08,-129 304.19,-113.8 304.19,-113.8 298.23,-113.1 298.23,-111.7 304.19,-111 304.19,-111 434.08,-95.8 434.08,-95.8 440.04,-95.1 451.96,-95.1 457.92,-95.8 457.92,-95.8 587.81,-111 587.81,-111 593.77,-111.7 593.77,-113.1 587.81,-113.8 587.81,-113.8 457.92,-129 457.92,-129 451.96,-129.7 440.04,-129.7 434.08,-129"/>
<text xml:space="preserve" text-anchor="middle" x="446" y="-108.2" font-family="Arial" font-size="14.00">Kredi limiti aşıldı mı?</text>
</g>
<!-- Zaman&#45;&gt;Kredi -->
<g id="edge15" class="edge">
<title>Zaman-&gt;Kredi</title>
<path fill="none" stroke="black" d="M446,-183.05C446,-171.36 446,-155.59 446,-142.02"/>
<polygon fill="black" stroke="black" points="449.5,-142.32 446,-132.32 442.5,-142.32 449.5,-142.32"/>
<text xml:space="preserve" text-anchor="middle" x="463.49" y="-152.6" font-family="Times,serif" font-size="14.00">Hayır</text>
</g>
<!-- ZamanFail -->
<g id="node18" class="node">
<title>ZamanFail</title>
<path fill="none" stroke="black" d="M984.76,-130.4C984.76,-130.4 763.24,-130.4 763.24,-130.4 757.24,-130.4 751.24,-124.4 751.24,-118.4 751.24,-118.4 751.24,-106.4 751.24,-106.4 751.24,-100.4 757.24,-94.4 763.24,-94.4 763.24,-94.4 984.76,-94.4 984.76,-94.4 990.76,-94.4 996.76,-100.4 996.76,-106.4 996.76,-106.4 996.76,-118.4 996.76,-118.4 996.76,-124.4 990.76,-130.4 984.76,-130.4"/>
<text xml:space="preserve" text-anchor="middle" x="874" y="-108.2" font-family="Arial" font-size="14.00">Zaman çakışması - Ders eklenmedi</text>
</g>
<!-- Zaman&#45;&gt;ZamanFail -->
<g id="edge16" class="edge">
<title>Zaman-&gt;ZamanFail</title>
<path fill="none" stroke="black" d="M504.17,-188.4C574.16,-174.21 692.74,-150.16 776.74,-133.12"/>
<polygon fill="black" stroke="black" points="777.25,-136.59 786.36,-131.17 775.86,-129.73 777.25,-136.59"/>
<text xml:space="preserve" text-anchor="middle" x="711.16" y="-152.6" font-family="Times,serif" font-size="14.00">Evet</text>
</g>
<!-- AddCourse -->
<g id="node15" class="node">
<title>AddCourse</title>
<path fill="none" stroke="black" d="M359.94,-41.6C359.94,-41.6 192.06,-41.6 192.06,-41.6 186.06,-41.6 180.06,-35.6 180.06,-29.6 180.06,-29.6 180.06,-12 180.06,-12 180.06,-6 186.06,0 192.06,0 192.06,0 359.94,0 359.94,0 365.94,0 371.94,-6 371.94,-12 371.94,-12 371.94,-29.6 371.94,-29.6 371.94,-35.6 365.94,-41.6 359.94,-41.6"/>
<text xml:space="preserve" text-anchor="middle" x="276" y="-25" font-family="Arial" font-size="14.00">Ders ekle</text>
<text xml:space="preserve" text-anchor="middle" x="276" y="-8.2" font-family="Arial" font-size="14.00">(kontenjan azalt, kredi topla)</text>
</g>
<!-- Kredi&#45;&gt;AddCourse -->
<g id="edge17" class="edge">
<title>Kredi-&gt;AddCourse</title>
<path fill="none" stroke="black" d="M419.06,-97.2C393.74,-83.86 355.26,-63.57 324.58,-47.41"/>
<polygon fill="black" stroke="black" points="326.32,-44.37 315.85,-42.8 323.06,-50.56 326.32,-44.37"/>
<text xml:space="preserve" text-anchor="middle" x="393.72" y="-63.8" font-family="Times,serif" font-size="14.00">Hayır</text>
</g>
<!-- KrediFail -->
<g id="node19" class="node">
<title>KrediFail</title>
<path fill="none" stroke="black" d="M721.09,-38.8C721.09,-38.8 508.91,-38.8 508.91,-38.8 502.91,-38.8 496.91,-32.8 496.91,-26.8 496.91,-26.8 496.91,-14.8 496.91,-14.8 496.91,-8.8 502.91,-2.8 508.91,-2.8 508.91,-2.8 721.09,-2.8 721.09,-2.8 727.09,-2.8 733.09,-8.8 733.09,-14.8 733.09,-14.8 733.09,-26.8 733.09,-26.8 733.09,-32.8 727.09,-38.8 721.09,-38.8"/>
<text xml:space="preserve" text-anchor="middle" x="615" y="-16.6" font-family="Arial" font-size="14.00">Kredi limiti aşıldı - Ders eklenmedi</text>
</g>
<!-- Kredi&#45;&gt;KrediFail -->
<g id="edge18" class="edge">
<title>Kredi-&gt;KrediFail</title>
<path fill="none" stroke="black" d="M472.78,-97.2C499.57,-83 541.19,-60.93 572.5,-44.34"/>
<polygon fill="black" stroke="black" points="573.73,-47.64 580.93,-39.86 570.45,-41.46 573.73,-47.64"/>
<text xml:space="preserve" text-anchor="middle" x="553.45" y="-63.8" font-family="Times,serif" font-size="14.00">Evet</text>
</g>
<!-- AddCourse&#45;&gt;DersGir -->
<g id="edge19" class="edge">
<title>AddCourse-&gt;DersGir</title>
<path fill="none" stroke="black" d="M179.86,-34.6C100.2,-47.98 0,-72.55 0,-111.4 0,-468.6 0,-468.6 0,-468.6 0,-534.08 458.34,-540.58 658.89,-540.29"/>
<polygon fill="black" stroke="black" points="658.77,-543.79 668.76,-540.27 658.75,-536.79 658.77,-543.79"/>
</g>
<!-- KontenjanFull&#45;&gt;DersGir -->
<g id="edge20" class="edge">
<title>KontenjanFull-&gt;DersGir</title>
<path fill="none" stroke="black" d="M700.79,-308.47C726.59,-319.15 754.01,-335.74 769,-360.8 797.15,-407.87 778.15,-474.62 763.48,-511.82"/>
<polygon fill="black" stroke="black" points="760.29,-510.38 759.7,-520.96 766.76,-513.05 760.29,-510.38"/>
</g>
<!-- OnkosulFail&#45;&gt;DersGir -->
<g id="edge21" class="edge">
<title>OnkosulFail-&gt;DersGir</title>
<path fill="none" stroke="black" d="M143.51,-219.69C151.1,-236.91 161,-264.15 161,-289 161,-468.6 161,-468.6 161,-468.6 161,-517.89 489.8,-533.16 656.49,-537.73"/>
<polygon fill="black" stroke="black" points="656.12,-541.22 666.21,-537.99 656.3,-534.22 656.12,-541.22"/>
</g>
<!-- ZamanFail&#45;&gt;DersGir -->
<g id="edge22" class="edge">
<title>ZamanFail-&gt;DersGir</title>
<path fill="none" stroke="black" d="M978.33,-130.88C1045.37,-145.18 1120,-168.27 1120,-200.2 1120,-468.6 1120,-468.6 1120,-468.6 1120,-525.07 951.24,-537.63 841.98,-539.85"/>
<polygon fill="black" stroke="black" points="842.06,-536.35 832.13,-540.02 842.19,-543.35 842.06,-536.35"/>
</g>
<!-- KrediFail&#45;&gt;DersGir -->
<g id="edge23" class="edge">
<title>KrediFail-&gt;DersGir</title>
<path fill="none" stroke="black" d="M733.49,-29.69C893.26,-41.95 1158,-68.7 1158,-111.4 1158,-468.6 1158,-468.6 1158,-468.6 1158,-497.44 1131.16,-494.89 1104,-504.6 1056.71,-521.51 926.39,-531.08 838.04,-535.8"/>
<polygon fill="black" stroke="black" points="837.99,-532.3 828.18,-536.31 838.35,-539.29 837.99,-532.3"/>
</g>
<!-- OnayOK -->
<g id="node21" class="node">
<title>OnayOK</title>
<ellipse fill="none" stroke="black" cx="750" cy="-201.2" rx="100.13" ry="18"/>
<text xml:space="preserve" text-anchor="middle" x="750" y="-197" font-family="Arial" font-size="14.00">Ders kaydı başarılı</text>
</g>
<!-- Danisman&#45;&gt;OnayOK -->
<g id="edge25" class="edge">
<title>Danisman-&gt;OnayOK</title>
<path fill="none" stroke="black" d="M867.19,-274.86C845.44,-261.37 812.31,-240.83 786.82,-225.03"/>
<polygon fill="black" stroke="black" points="788.74,-222.1 778.4,-219.81 785.06,-228.05 788.74,-222.1"/>
<text xml:space="preserve" text-anchor="middle" x="845.37" y="-241.4" font-family="Times,serif" font-size="14.00">Evet</text>
</g>
<!-- OnayFail -->
<g id="node22" class="node">
<title>OnayFail</title>
<path fill="none" stroke="black" d="M1079.89,-219.2C1079.89,-219.2 880.11,-219.2 880.11,-219.2 874.11,-219.2 868.11,-213.2 868.11,-207.2 868.11,-207.2 868.11,-195.2 868.11,-195.2 868.11,-189.2 874.11,-183.2 880.11,-183.2 880.11,-183.2 1079.89,-183.2 1079.89,-183.2 1085.89,-183.2 1091.89,-189.2 1091.89,-195.2 1091.89,-195.2 1091.89,-207.2 1091.89,-207.2 1091.89,-213.2 1085.89,-219.2 1079.89,-219.2"/>
<text xml:space="preserve" text-anchor="middle" x="980" y="-197" font-family="Arial" font-size="14.00">Onay reddedildi - Düzenleme yap</text>
</g>
<!-- Danisman&#45;&gt;OnayFail -->
<g id="edge26" class="edge">
<title>Danisman-&gt;OnayFail</title>
<path fill="none" stroke="black" d="M905.68,-273.88C918.93,-261.09 938.21,-242.51 953.8,-227.46"/>
<polygon fill="black" stroke="black" points="956.17,-230.04 960.94,-220.58 951.31,-225 956.17,-230.04"/>
<text xml:space="preserve" text-anchor="middle" x="960.55" y="-241.4" font-family="Times,serif" font-size="14.00">Hayır</text>
</g>
</g>
</svg>
